<svg width="20" height="21" viewBox="0 0 20 21" fill="none" xmlns="http://www.w3.org/2000/svg">
<g clip-path="url(#clip0_1_12)">
<g clip-path="url(#clip1_1_12)">
<path d="M19.174 10.2105C19.174 9.43162 19.1121 8.86325 18.9782 8.27383H10.2725V11.7893H15.3825C15.2796 12.6629 14.7232 13.9786 13.4869 14.8627L13.4695 14.9804L16.2221 17.1589L16.4128 17.1783C18.1643 15.5258 19.174 13.0944 19.174 10.2105Z" fill="#4285F4"/>
<path d="M10.2724 19.4729C12.7759 19.4729 14.8776 18.6308 16.4128 17.1783L13.4868 14.8627C12.7038 15.4205 11.6529 15.81 10.2724 15.81C7.82036 15.81 5.73924 14.1575 4.99738 11.8735L4.88864 11.883L2.02644 14.1459L1.98901 14.2522C3.51379 17.3467 6.64581 19.4729 10.2724 19.4729Z" fill="#34A853"/>
<path d="M4.9974 11.8735C4.80165 11.2841 4.68836 10.6525 4.68836 10C4.68836 9.34739 4.80165 8.71589 4.9871 8.12648L4.98191 8.00095L2.08385 5.70163L1.98903 5.74771C1.3606 7.03182 1 8.47383 1 10C1 11.5262 1.3606 12.9681 1.98903 14.2522L4.9974 11.8735Z" fill="#FBBC05"/>
<path d="M10.2724 4.18994C12.0135 4.18994 13.188 4.95829 13.8577 5.60039L16.4746 2.99007C14.8674 1.46389 12.7759 0.52713 10.2724 0.52713C6.64581 0.52713 3.51379 2.65324 1.98901 5.74769L4.98708 8.12646C5.73924 5.84245 7.82036 4.18994 10.2724 4.18994Z" fill="#EB4335"/>
</g>
</g>
<defs>
<clipPath id="clip0_1_12">
<rect width="20" height="20" fill="white" transform="translate(0 0.5)"/>
</clipPath>
<clipPath id="clip1_1_12">
<rect x="1" y="0.5" width="18.1739" height="19" rx="9.08696" fill="white"/>
</clipPath>
</defs>
</svg>
